<svg width="222" height="222" viewBox="0 0 222 222" fill="none" xmlns="http://www.w3.org/2000/svg">
<g clip-path="url(#clip0)">
<g filter="url(#filter0_i)">
<circle cx="111" cy="111" r="111" fill="#4A8CCA"/>
</g>
<mask id="path-3-inside-1" fill="white">
<path d="M75.1632 19.0204C99.9233 9.51586 127.445 10.2365 151.674 21.0238L111 112.378L75.1632 19.0204Z"/>
</mask>
<path d="M75.1632 19.0204C99.9233 9.51586 127.445 10.2365 151.674 21.0238L111 112.378L75.1632 19.0204Z" fill="#EFEEFE" stroke="#E7E6F3" stroke-width="2" mask="url(#path-3-inside-1)"/>
<mask id="path-4-inside-2" fill="white">
<path d="M151.698 21.0346C175.924 31.8283 194.869 51.8036 204.367 76.5661L111 112.378L151.698 21.0346Z"/>
</mask>
<path d="M151.698 21.0346C175.924 31.8283 194.869 51.8036 204.367 76.5661L111 112.378L151.698 21.0346Z" fill="white" stroke="#E7E6F3" stroke-width="2" mask="url(#path-4-inside-2)"/>
<mask id="path-5-inside-3" fill="white">
<path d="M204.358 76.5416C213.863 101.302 213.142 128.823 202.355 153.052L111 112.378L204.358 76.5416Z"/>
</mask>
<path d="M204.358 76.5416C213.863 101.302 213.142 128.823 202.355 153.052L111 112.378L204.358 76.5416Z" fill="#EFEEFE" stroke="#E7E6F3" stroke-width="2" mask="url(#path-5-inside-3)"/>
<mask id="path-6-inside-4" fill="white">
<path d="M202.356 153.05C191.569 177.279 171.599 196.23 146.839 205.735L111 112.378L202.356 153.05Z"/>
</mask>
<path d="M202.356 153.05C191.569 177.279 171.599 196.23 146.839 205.735L111 112.378L202.356 153.05Z" fill="white" stroke="#E7E6F3" stroke-width="2" mask="url(#path-6-inside-4)"/>
<mask id="path-7-inside-5" fill="white">
<path d="M70.3121 203.727C94.5391 214.518 122.061 215.243 146.822 205.742L111 112.378L70.3121 203.727Z"/>
</mask>
<path d="M70.3121 203.727C94.5391 214.518 122.061 215.243 146.822 205.742L111 112.378L70.3121 203.727Z" fill="#EFEEFE" stroke="#E7E6F3" stroke-width="2" mask="url(#path-7-inside-5)"/>
<mask id="path-8-inside-6" fill="white">
<path d="M17.5602 148.002C22.2786 160.378 29.4087 171.694 38.5364 181.292C47.6642 190.89 58.6077 198.579 70.7317 203.912L111 112.378L17.5602 148.002Z"/>
</mask>
<path d="M17.5602 148.002C22.2786 160.378 29.4087 171.694 38.5364 181.292C47.6642 190.89 58.6077 198.579 70.7317 203.912L111 112.378L17.5602 148.002Z" fill="white" stroke="#E7E6F3" stroke-width="2" mask="url(#path-8-inside-6)"/>
<mask id="path-9-inside-7" fill="white">
<path d="M19.6452 71.7053C8.85802 95.9341 8.13752 123.456 17.6422 148.216L111 112.378L19.6452 71.7053Z"/>
</mask>
<path d="M19.6452 71.7053C8.85802 95.9341 8.13752 123.456 17.6422 148.216L111 112.378L19.6452 71.7053Z" fill="#EFEEFE" stroke="#E7E6F3" stroke-width="2" mask="url(#path-9-inside-7)"/>
<mask id="path-10-inside-8" fill="white">
<path d="M75.1927 19.009C50.4297 28.5057 30.4534 47.4505 19.6583 71.6758L111 112.378L75.1927 19.009Z"/>
</mask>
<path d="M75.1927 19.009C50.4297 28.5057 30.4534 47.4505 19.6583 71.6758L111 112.378L75.1927 19.009Z" fill="white" stroke="#E7E6F3" stroke-width="2" mask="url(#path-10-inside-8)"/>
<g clip-path="url(#clip1)">
<path d="M103.603 189.985L100.431 189.985L100.431 190.185C100.431 190.559 100.733 190.861 101.106 190.861L102.928 190.861C103.301 190.861 103.603 190.559 103.603 190.185L103.603 189.985Z" fill="url(#paint0_linear)"/>
<path d="M121.57 189.985L118.397 189.985L118.397 190.185C118.397 190.559 118.699 190.861 119.073 190.861L120.894 190.861C121.267 190.861 121.57 190.559 121.57 190.185L121.57 189.985Z" fill="url(#paint1_linear)"/>
<path d="M117.815 188.891L115.616 188.891L115.616 191.152C115.616 191.661 115.202 192.075 114.693 192.075L107.307 192.075C106.798 192.075 106.384 191.661 106.384 191.152L106.384 188.891L104.185 188.891L104.185 191.152C104.185 192.874 105.585 194.274 107.307 194.274L114.693 194.274C116.415 194.274 117.815 192.874 117.815 191.152L117.815 188.891Z" fill="url(#paint2_linear)"/>
<path d="M117.815 188.891L117.815 191.152C117.815 191.183 117.814 191.213 117.813 191.244L114.785 194.272C114.754 194.273 114.724 194.274 114.693 194.274L114.074 194.274L114.074 192.075L114.693 192.075C115.202 192.075 115.616 191.661 115.616 191.152L115.616 188.891L117.815 188.891L117.815 188.891Z" fill="url(#paint3_linear)"/>
<path d="M113.946 194.82C114.451 194.82 114.86 194.411 114.86 193.906L114.86 192.309C114.86 191.958 114.575 191.674 114.225 191.674L113.952 191.674C113.764 191.674 113.596 191.755 113.48 191.883C113.392 191.98 113.24 191.98 113.152 191.883C113.036 191.755 112.868 191.674 112.68 191.674L112.407 191.674C112.22 191.674 112.052 191.755 111.936 191.884C111.848 191.98 111.695 191.98 111.608 191.883C111.492 191.755 111.324 191.674 111.136 191.674L110.864 191.674C110.676 191.674 110.508 191.755 110.392 191.883C110.305 191.98 110.152 191.98 110.064 191.884C109.948 191.755 109.78 191.674 109.593 191.674L109.32 191.674C109.132 191.674 108.964 191.755 108.848 191.883C108.76 191.98 108.608 191.98 108.52 191.883C108.404 191.755 108.236 191.674 108.048 191.674L107.775 191.674C107.425 191.674 107.14 191.958 107.14 192.309L107.14 193.906C107.14 194.411 107.549 194.82 108.054 194.82L113.946 194.82Z" fill="url(#paint4_linear)"/>
<path d="M113.054 192.889L108.946 192.889C108.626 192.889 108.367 193.148 108.367 193.468L108.367 193.526C108.367 193.845 108.626 194.104 108.946 194.104L113.054 194.104C113.374 194.104 113.633 193.845 113.633 193.526L113.633 193.468C113.633 193.148 113.374 192.889 113.054 192.889Z" fill="url(#paint5_linear)"/>
<path d="M122.789 171.18L99.211 171.18C97.9899 171.18 97 172.17 97 173.391L97 187.968C97 189.189 97.9899 190.178 99.211 190.178L122.789 190.178C124.01 190.178 125 189.189 125 187.968L125 173.391C125 172.17 124.01 171.18 122.789 171.18Z" fill="url(#paint6_linear)"/>
<path d="M97 177.635L97 173.391C97 172.17 97.9899 171.18 99.211 171.18L122.789 171.18C124.01 171.18 125 172.17 125 173.391L125 177.635L97 177.635Z" fill="url(#paint7_linear)"/>
<path d="M111 174.303C114.522 174.303 117.377 177.158 117.377 180.679C117.377 184.201 114.522 187.056 111 187.056C107.478 187.056 104.623 184.201 104.623 180.679C104.623 177.158 107.478 174.303 111 174.303Z" fill="url(#paint8_linear)"/>
<path d="M117.242 179.373L112.357 184.239C112.27 184.396 112.103 184.503 111.911 184.503L110.089 184.503C109.808 184.503 109.581 184.276 109.581 183.995L109.581 182.098L107.684 182.098C107.404 182.098 107.176 181.871 107.176 181.59L107.176 179.768C107.176 179.576 107.283 179.409 107.44 179.323L112.304 174.436C114.779 174.951 116.727 176.899 117.242 179.373Z" fill="url(#paint9_linear)"/>
<path d="M114.316 179.26L112.419 179.26L112.419 177.363C112.419 177.083 112.192 176.856 111.911 176.856L110.089 176.856C109.808 176.856 109.581 177.083 109.581 177.363L109.581 179.26L107.684 179.26C107.404 179.26 107.176 179.488 107.176 179.768L107.176 181.59C107.176 181.871 107.404 182.098 107.684 182.098L109.581 182.098L109.581 183.995C109.581 184.276 109.808 184.503 110.089 184.503L111.911 184.503C112.192 184.503 112.419 184.276 112.419 183.995L112.419 182.098L114.316 182.098C114.596 182.098 114.824 181.871 114.824 181.59L114.824 179.768C114.824 179.488 114.596 179.26 114.316 179.26Z" fill="url(#paint10_linear)"/>
<path d="M111.911 176.856L111 176.856L111 184.503L111.911 184.503C112.192 184.503 112.419 184.276 112.419 183.995L112.419 177.363C112.419 177.083 112.192 176.856 111.911 176.856Z" fill="url(#paint11_linear)"/>
<path d="M114.824 181.59L114.824 180.679L107.176 180.679L107.176 181.59C107.176 181.871 107.404 182.098 107.684 182.098L114.316 182.098C114.596 182.098 114.824 181.871 114.824 181.59Z" fill="url(#paint12_linear)"/>
</g>
<path d="M165.5 48.5H162.5C162.235 48.5 161.98 48.6054 161.793 48.7929C161.605 48.9804 161.5 49.2348 161.5 49.5C161.5 49.7652 161.605 50.0196 161.793 50.2071C161.98 50.3946 162.235 50.5 162.5 50.5H163V54.5H165V50.5H165.5C165.765 50.5 166.02 50.3946 166.207 50.2071C166.395 50.0196 166.5 49.7652 166.5 49.5C166.5 49.2348 166.395 48.9804 166.207 48.7929C166.02 48.6054 165.765 48.5 165.5 48.5Z" fill="#A1D51C"/>
<path d="M165.5 75.5H165V71.5H163V75.5H162.5C162.235 75.5 161.98 75.6054 161.793 75.7929C161.605 75.9804 161.5 76.2348 161.5 76.5C161.5 76.7652 161.605 77.0196 161.793 77.2071C161.98 77.3946 162.235 77.5 162.5 77.5H165.5C165.765 77.5 166.02 77.3946 166.207 77.2071C166.395 77.0196 166.5 76.7652 166.5 76.5C166.5 76.2348 166.395 75.9804 166.207 75.7929C166.02 75.6054 165.765 75.5 165.5 75.5Z" fill="#A1D51C"/>
<path d="M151.5 64.5V64H155.5V62H151.5V61.5C151.5 61.2348 151.395 60.9804 151.207 60.7929C151.02 60.6054 150.765 60.5 150.5 60.5C150.235 60.5 149.98 60.6054 149.793 60.7929C149.605 60.9804 149.5 61.2348 149.5 61.5V64.5C149.5 64.7652 149.605 65.0196 149.793 65.2071C149.98 65.3946 150.235 65.5 150.5 65.5C150.765 65.5 151.02 65.3946 151.207 65.2071C151.395 65.0196 151.5 64.7652 151.5 64.5Z" fill="#A1D51C"/>
<path d="M177.5 60.5C177.235 60.5 176.98 60.6054 176.793 60.7929C176.605 60.9804 176.5 61.2348 176.5 61.5V62H172.5V64H176.5V64.5C176.5 64.7652 176.605 65.0196 176.793 65.2071C176.98 65.3946 177.235 65.5 177.5 65.5C177.765 65.5 178.02 65.3946 178.207 65.2071C178.395 65.0196 178.5 64.7652 178.5 64.5V61.5C178.5 61.2348 178.395 60.9804 178.207 60.7929C178.02 60.6054 177.765 60.5 177.5 60.5Z" fill="#A1D51C"/>
<path d="M159.05 51.4245C159.165 51.3593 159.265 51.2721 159.346 51.1679C159.427 51.0636 159.486 50.9445 159.521 50.8172C159.555 50.6899 159.564 50.5571 159.547 50.4263C159.53 50.2955 159.488 50.1694 159.422 50.0552C159.356 49.941 159.268 49.8409 159.163 49.7608C159.059 49.6807 158.939 49.6221 158.811 49.5884C158.684 49.5547 158.551 49.5465 158.42 49.5644C158.29 49.5823 158.164 49.6258 158.05 49.6925L155.45 51.1925C155.335 51.2577 155.235 51.3449 155.154 51.4491C155.073 51.5534 155.014 51.6725 154.979 51.7998C154.945 51.9271 154.936 52.0599 154.953 52.1907C154.97 52.3215 155.012 52.4476 155.078 52.5618C155.144 52.676 155.232 52.7761 155.337 52.8562C155.442 52.9363 155.561 52.9949 155.689 53.0286C155.816 53.0623 155.949 53.0705 156.08 53.0526C156.21 53.0347 156.336 52.9912 156.45 52.9245L156.883 52.6745L158.883 56.139L160.615 55.139L158.615 51.6745L159.05 51.4245Z" fill="#A1D51C"/>
<path d="M171.55 73.0755L171.117 73.3255L169.117 69.861L167.385 70.861L169.385 74.3255L168.952 74.5755C168.837 74.6407 168.737 74.7279 168.656 74.8321C168.575 74.9364 168.516 75.0555 168.481 75.1828C168.447 75.3101 168.437 75.4429 168.454 75.5737C168.471 75.7045 168.514 75.8306 168.58 75.9448C168.646 76.059 168.734 76.1591 168.839 76.2392C168.943 76.3193 169.063 76.3779 169.191 76.4116C169.318 76.4453 169.451 76.4535 169.582 76.4356C169.712 76.4177 169.838 76.3742 169.952 76.3075L172.552 74.8075C172.78 74.674 172.945 74.4557 173.013 74.2004C173.08 73.9451 173.044 73.6735 172.912 73.4448C172.78 73.2161 172.563 73.0489 172.308 72.9798C172.053 72.9106 171.781 72.945 171.552 73.0755H171.55Z" fill="#A1D51C"/>
<path d="M153.674 70.116L157.139 68.116L156.139 66.384L152.674 68.384L152.424 67.951C152.359 67.8364 152.272 67.7357 152.168 67.6549C152.064 67.5741 151.944 67.5147 151.817 67.4802C151.69 67.4456 151.557 67.4366 151.426 67.4536C151.296 67.4706 151.169 67.5133 151.055 67.5792C150.941 67.6452 150.841 67.7331 150.761 67.8378C150.681 67.9426 150.622 68.0622 150.588 68.1897C150.555 68.3172 150.547 68.4501 150.564 68.5807C150.582 68.7114 150.626 68.8372 150.692 68.951L152.192 71.551C152.326 71.7788 152.544 71.9445 152.8 72.012C153.055 72.0795 153.326 72.0433 153.555 71.9113C153.784 71.7792 153.951 71.5621 154.02 71.3073C154.089 71.0524 154.055 70.7806 153.924 70.551L153.674 70.116Z" fill="#A1D51C"/>
<path d="M174.325 55.884L170.861 57.884L171.861 59.616L175.325 57.616L175.575 58.049C175.709 58.2768 175.927 58.4425 176.183 58.51C176.438 58.5775 176.709 58.5413 176.938 58.4093C177.167 58.2772 177.334 58.0601 177.403 57.8053C177.472 57.5504 177.438 57.2786 177.307 57.049L175.807 54.449C175.742 54.3344 175.655 54.2337 175.551 54.1529C175.447 54.0721 175.327 54.0127 175.2 53.9782C175.073 53.9436 174.94 53.9346 174.809 53.9516C174.678 53.9686 174.552 54.0113 174.438 54.0772C174.324 54.1432 174.224 54.2311 174.144 54.3358C174.064 54.4406 174.005 54.5602 173.971 54.6877C173.938 54.8152 173.93 54.9481 173.947 55.0787C173.965 55.2094 174.009 55.3352 174.075 55.449L174.325 55.884Z" fill="#A1D51C"/>
<path d="M151.058 58.415C151.288 58.5477 151.561 58.5838 151.817 58.5153C152.073 58.4469 152.292 58.2795 152.424 58.05L152.674 57.617L156.139 59.617L157.139 57.885L153.674 55.885L153.924 55.452C154.055 55.2224 154.089 54.9506 154.02 54.6957C153.951 54.4409 153.784 54.2238 153.555 54.0917C153.326 53.9597 153.055 53.9235 152.8 53.991C152.544 54.0585 152.326 54.2242 152.192 54.452L150.692 57.052C150.561 57.2814 150.525 57.5536 150.594 57.8091C150.663 58.0645 150.83 58.2824 151.058 58.415Z" fill="#A1D51C"/>
<path d="M176.941 67.585C176.712 67.4524 176.439 67.4165 176.183 67.4851C175.926 67.5537 175.708 67.7213 175.575 67.951L175.325 68.384L171.861 66.384L170.861 68.116L174.325 70.116L174.075 70.549C174.009 70.6628 173.965 70.7886 173.947 70.9193C173.93 71.0499 173.938 71.1828 173.971 71.3103C174.005 71.4378 174.064 71.5574 174.144 71.6622C174.224 71.7669 174.324 71.8548 174.438 71.9207C174.552 71.9867 174.678 72.0294 174.809 72.0464C174.94 72.0634 175.073 72.0543 175.2 72.0198C175.327 71.9852 175.447 71.9259 175.551 71.845C175.655 71.7642 175.742 71.6636 175.807 71.549L177.307 68.949C177.439 68.7195 177.475 68.447 177.406 68.1913C177.338 67.9357 177.171 67.7176 176.941 67.585Z" fill="#A1D51C"/>
<path d="M158.884 69.861L156.884 73.3255L156.451 73.0755C156.221 72.945 155.95 72.9106 155.695 72.9798C155.44 73.0489 155.223 73.2161 155.091 73.4448C154.959 73.6735 154.923 73.9451 154.99 74.2004C155.058 74.4557 155.223 74.674 155.451 74.8075L158.051 76.3075C158.165 76.3742 158.291 76.4177 158.421 76.4356C158.552 76.4535 158.685 76.4453 158.812 76.4116C158.94 76.3779 159.059 76.3193 159.164 76.2392C159.269 76.1591 159.357 76.059 159.423 75.9448C159.489 75.8306 159.531 75.7045 159.548 75.5737C159.565 75.4429 159.556 75.3101 159.522 75.1828C159.487 75.0555 159.428 74.9364 159.347 74.8321C159.266 74.7279 159.166 74.6407 159.051 74.5755L158.618 74.3255L160.618 70.861L158.884 69.861Z" fill="#A1D51C"/>
<path d="M169.116 56.139L171.116 52.6745L171.549 52.9245C171.779 53.055 172.05 53.0894 172.305 53.0202C172.56 52.9511 172.777 52.7839 172.909 52.5552C173.041 52.3265 173.077 52.0549 173.01 51.7996C172.943 51.5443 172.777 51.3261 172.549 51.1925L169.949 49.6925C169.835 49.6258 169.709 49.5823 169.579 49.5644C169.448 49.5465 169.315 49.5547 169.188 49.5884C169.06 49.6221 168.941 49.6807 168.836 49.7608C168.731 49.8409 168.643 49.941 168.577 50.0552C168.511 50.1694 168.469 50.2955 168.452 50.4263C168.435 50.5571 168.444 50.6899 168.478 50.8172C168.513 50.9445 168.572 51.0636 168.653 51.1679C168.734 51.2721 168.834 51.3593 168.949 51.4245L169.382 51.6745L167.382 55.139L169.116 56.139Z" fill="#A1D51C"/>
<path d="M163 71.5V73C163.673 72.998 164.344 72.9207 165 72.7695V71.5H163Z" fill="#7AB92D"/>
<path d="M155.5 62H154.231C154.079 62.656 154.002 63.3268 154 64H155.5V62Z" fill="#7AB92D"/>
<path d="M167.384 70.861L167.809 71.598C168.382 71.2377 168.912 70.8142 169.39 70.3355L169.116 69.861L167.384 70.861Z" fill="#7AB92D"/>
<path d="M156.139 66.384L154.619 67.2615C154.859 67.8863 155.169 68.4822 155.541 69.038L157.139 68.116L156.139 66.384Z" fill="#7AB92D"/>
<path d="M157.139 57.884L156.665 57.61C156.185 58.0878 155.761 58.6179 155.4 59.1905L156.137 59.616L157.139 57.884Z" fill="#7AB92D"/>
<path d="M158.884 69.861L157.962 71.461C158.518 71.8339 159.114 72.1433 159.739 72.3835L160.616 70.8635L158.884 69.861Z" fill="#7AB92D"/>
<path d="M162.5 50.5H163V54.5H165V53.2225C164.697 53.0485 164.445 52.7977 164.269 52.4953C164.094 52.1929 164.001 51.8496 164 51.5V49.5H163.5C163.369 49.4998 163.239 49.4738 163.118 49.4234C162.997 49.373 162.888 49.2992 162.795 49.2064C162.703 49.1135 162.629 49.0033 162.58 48.8821C162.53 48.7609 162.505 48.631 162.505 48.5H162.5C162.235 48.5 161.98 48.6054 161.793 48.7929C161.605 48.9804 161.5 49.2348 161.5 49.5C161.5 49.7652 161.605 50.0196 161.793 50.2071C161.98 50.3946 162.235 50.5 162.5 50.5Z" fill="#7AB92D"/>
<path d="M162.5 75.5C162.235 75.5 161.98 75.6054 161.793 75.7929C161.605 75.9804 161.5 76.2348 161.5 76.5C161.5 76.7652 161.605 77.0196 161.793 77.2071C161.98 77.3946 162.235 77.5 162.5 77.5H165.5C165.765 77.5 166.02 77.3946 166.207 77.2071C166.395 77.0196 166.5 76.7652 166.5 76.5H163.5C163.235 76.5 162.98 76.3946 162.793 76.2071C162.605 76.0196 162.5 75.7652 162.5 75.5Z" fill="#7AB92D"/>
<path d="M151.5 64.5C151.235 64.5 150.98 64.3946 150.793 64.2071C150.605 64.0196 150.5 63.7652 150.5 63.5V60.5C150.235 60.5 149.98 60.6054 149.793 60.7929C149.605 60.9804 149.5 61.2348 149.5 61.5V64.5C149.5 64.7652 149.605 65.0196 149.793 65.2071C149.98 65.3946 150.235 65.5 150.5 65.5C150.765 65.5 151.02 65.3946 151.207 65.2071C151.395 65.0196 151.5 64.7652 151.5 64.5Z" fill="#7AB92D"/>
<path d="M177.5 63.4465V63H175.5C175.15 62.9992 174.807 62.9064 174.505 62.7309C174.202 62.5553 173.952 62.3033 173.778 62H172.5V64H176.5V64.5C176.5 64.7652 176.605 65.0196 176.793 65.2071C176.98 65.3946 177.235 65.5 177.5 65.5C177.765 65.5 178.02 65.3946 178.207 65.2071C178.395 65.0196 178.5 64.7652 178.5 64.5V64.495C178.444 64.4966 178.388 64.4938 178.332 64.4865C178.093 64.4383 177.879 64.3078 177.727 64.1176C177.575 63.9275 177.495 63.6899 177.5 63.4465Z" fill="#7AB92D"/>
<path d="M156.45 52.9245L156.883 52.6745L158.883 56.139L160.615 55.139L160.16 54.35C159.894 54.2888 159.644 54.1736 159.424 54.0114C159.205 53.8493 159.021 53.6437 158.884 53.4075L157.884 51.6755L157.451 51.9255C157.33 51.9955 157.195 52.0393 157.056 52.054C156.917 52.0688 156.776 52.0541 156.643 52.011C156.51 51.9678 156.387 51.8972 156.283 51.8037C156.179 51.7102 156.095 51.5958 156.038 51.468C155.957 51.2866 155.936 51.0843 155.977 50.89L155.45 51.1925C155.335 51.2577 155.235 51.3449 155.154 51.4491C155.073 51.5533 155.014 51.6725 154.979 51.7998C154.945 51.9271 154.936 52.0599 154.953 52.1907C154.97 52.3215 155.012 52.4476 155.078 52.5618C155.144 52.676 155.232 52.7761 155.337 52.8562C155.442 52.9363 155.561 52.9949 155.689 53.0286C155.816 53.0623 155.949 53.0705 156.08 53.0526C156.21 53.0347 156.336 52.9912 156.45 52.9245Z" fill="#7AB92D"/>
<path d="M153.193 70.55L151.693 67.95C151.607 67.7989 151.562 67.6278 151.563 67.454C151.386 67.4515 151.212 67.4964 151.059 67.584C150.829 67.7166 150.661 67.935 150.593 68.1912C150.524 68.4474 150.56 68.7203 150.693 68.95L152.193 71.55C152.302 71.7413 152.472 71.8908 152.676 71.9753C152.879 72.0597 153.105 72.0742 153.318 72.0166C153.531 71.959 153.719 71.8325 153.852 71.6569C153.985 71.4813 154.056 71.2664 154.055 71.046C153.88 71.046 153.709 71.0002 153.557 70.9131C153.406 70.8261 153.28 70.7009 153.193 70.55Z" fill="#7AB92D"/>
<path d="M176.047 56.5L175.825 56.1165L174.093 57.1165C173.798 57.2863 173.465 57.3776 173.124 57.3819C172.784 57.3862 172.448 57.3033 172.149 57.141L170.861 57.8845L171.861 59.6165L175.325 57.6165L175.575 58.0495C175.709 58.2773 175.927 58.443 176.183 58.5105C176.438 58.578 176.709 58.5418 176.938 58.4098C177.167 58.2777 177.334 58.0606 177.403 57.8058C177.472 57.5509 177.438 57.2791 177.307 57.0495L177.272 56.9885C177.043 57.0605 176.796 57.0512 176.573 56.9622C176.349 56.8732 176.164 56.7099 176.047 56.5Z" fill="#7AB92D"/>
<path d="M151.058 58.415C151.288 58.5477 151.561 58.5838 151.817 58.5153C152.073 58.4469 152.292 58.2795 152.424 58.05L152.429 58.0415C152.266 58.0202 152.111 57.9591 151.977 57.8634C151.843 57.7677 151.735 57.6404 151.662 57.4929C151.589 57.3453 151.554 57.1821 151.559 57.0176C151.564 56.8531 151.61 56.6925 151.692 56.55L153.187 53.9605C152.992 53.935 152.793 53.9681 152.616 54.0556C152.438 54.143 152.291 54.281 152.192 54.452L150.692 57.052C150.561 57.2814 150.525 57.5536 150.594 57.8091C150.663 58.0645 150.83 58.2824 151.058 58.415Z" fill="#7AB92D"/>
<path d="M175.808 70.05C175.675 70.2797 175.457 70.4473 175.2 70.5159C174.944 70.5845 174.671 70.5486 174.442 70.416C174.369 70.373 174.301 70.3207 174.242 70.2605L174.075 70.55C174.008 70.6638 173.964 70.7896 173.946 70.9203C173.929 71.0509 173.937 71.1839 173.97 71.3114C174.004 71.4389 174.063 71.5584 174.143 71.6632C174.223 71.768 174.323 71.8558 174.437 71.9218C174.551 71.9877 174.678 72.0304 174.808 72.0474C174.939 72.0644 175.072 72.0554 175.199 72.0208C175.327 71.9863 175.446 71.9269 175.55 71.8461C175.654 71.7653 175.741 71.6647 175.807 71.55L177.307 68.95C177.416 68.7581 177.46 68.5352 177.429 68.3162C177.399 68.0972 177.297 67.8944 177.139 67.7395L175.808 70.05Z" fill="#7AB92D"/>
<path d="M156.45 73.8075C156.299 73.7198 156.174 73.594 156.087 73.4428C156 73.2915 155.954 73.12 155.954 72.9455C155.733 72.9437 155.519 73.015 155.343 73.1482C155.167 73.2815 155.041 73.4692 154.983 73.682C154.926 73.8948 154.94 74.1207 155.025 74.3243C155.109 74.528 155.259 74.6979 155.45 74.8075L158.05 76.3075C158.28 76.4401 158.553 76.476 158.809 76.4074C159.065 76.3387 159.283 76.1712 159.416 75.9415C159.504 75.788 159.548 75.6137 159.546 75.437C159.372 75.4382 159.201 75.3935 159.05 75.3075L156.45 73.8075Z" fill="#7AB92D"/>
<path d="M168.95 51.4245L169.383 51.6745L167.383 55.139L169.115 56.139L169.86 54.85C169.697 54.5508 169.614 54.2149 169.619 53.8746C169.623 53.5342 169.714 53.2006 169.884 52.9055L170.884 51.1735L170.451 50.9235C170.25 50.8066 170.096 50.623 170.016 50.4046C169.936 50.1862 169.935 49.9466 170.013 49.7275L169.95 49.6925C169.836 49.6258 169.71 49.5823 169.58 49.5644C169.449 49.5465 169.316 49.5547 169.189 49.5884C169.061 49.6221 168.942 49.6807 168.837 49.7608C168.732 49.8409 168.644 49.941 168.578 50.0552C168.512 50.1694 168.47 50.2955 168.453 50.4263C168.436 50.5571 168.445 50.6899 168.479 50.8172C168.514 50.9445 168.573 51.0636 168.654 51.1679C168.735 51.2721 168.835 51.3593 168.95 51.4245Z" fill="#7AB92D"/>
<path d="M170.45 75.3075C170.307 75.3898 170.147 75.4356 169.982 75.4409C169.818 75.4462 169.655 75.4108 169.507 75.3379C169.36 75.265 169.232 75.1568 169.137 75.023C169.041 74.8891 168.98 74.7337 168.958 74.5705L168.95 74.5755C168.835 74.6407 168.735 74.7279 168.654 74.8321C168.573 74.9364 168.514 75.0555 168.479 75.1828C168.445 75.3101 168.436 75.4429 168.453 75.5737C168.47 75.7045 168.512 75.8306 168.578 75.9448C168.644 76.059 168.732 76.1591 168.837 76.2392C168.942 76.3193 169.061 76.3779 169.189 76.4116C169.316 76.4453 169.449 76.4535 169.58 76.4356C169.71 76.4177 169.836 76.3742 169.95 76.3075L172.55 74.8075C172.721 74.7087 172.859 74.5615 172.946 74.3844C173.034 74.2074 173.067 74.0083 173.041 73.8125L170.45 75.3075Z" fill="#7AB92D"/>
<path d="M164 72C168.971 72 173 67.9706 173 63C173 58.0294 168.971 54 164 54C159.029 54 155 58.0294 155 63C155 67.9706 159.029 72 164 72Z" fill="#C4F236"/>
<path d="M169 67.5C167.472 67.5028 165.969 67.1159 164.632 66.3759C163.295 65.6359 162.169 64.5672 161.361 63.2708C160.552 61.9745 160.087 60.4933 160.01 58.9674C159.933 57.4414 160.247 55.921 160.921 54.55C159.538 55.0534 158.299 55.8887 157.313 56.9827C156.328 58.0767 155.626 59.3958 155.27 60.8244C154.913 62.2529 154.913 63.7471 155.268 65.1758C155.624 66.6046 156.325 67.9241 157.31 69.0187C158.295 70.1132 159.533 70.9492 160.917 71.4534C162.3 71.9575 163.786 72.1143 165.244 71.9101C166.702 71.7059 168.088 71.1468 169.28 70.282C170.471 69.4171 171.432 68.273 172.078 66.95C171.092 67.3125 170.05 67.4987 169 67.5Z" fill="#A1D51C"/>
<path d="M166.5 63.5C166.5 64.0304 166.289 64.5391 165.914 64.9142C165.539 65.2893 165.03 65.5 164.5 65.5C163.97 65.5 163.461 65.7107 163.086 66.0858C162.711 66.4609 162.5 66.9696 162.5 67.5C162.5 68.0304 162.711 68.5391 163.086 68.9142C163.461 69.2893 163.97 69.5 164.5 69.5C166.091 69.5 167.617 68.8679 168.743 67.7426C169.868 66.6174 170.5 65.0913 170.5 63.5C170.5 62.9696 170.289 62.4609 169.914 62.0858C169.539 61.7107 169.03 61.5 168.5 61.5C167.97 61.5 167.461 61.7107 167.086 62.0858C166.711 62.4609 166.5 62.9696 166.5 63.5Z" fill="#A1D51C"/>
<path d="M164 60C165.105 60 166 59.1046 166 58C166 56.8954 165.105 56 164 56C162.895 56 162 56.8954 162 58C162 59.1046 162.895 60 164 60Z" fill="#A1D51C"/>
<path d="M159.5 62.5C159.5 62.2348 159.395 61.9804 159.207 61.7929C159.02 61.6054 158.765 61.5 158.5 61.5C158.235 61.5 157.98 61.6054 157.793 61.7929C157.605 61.9804 157.5 62.2348 157.5 62.5C157.5 63.2956 157.816 64.0587 158.379 64.6213C158.941 65.1839 159.704 65.5 160.5 65.5C160.765 65.5 161.02 65.3946 161.207 65.2071C161.395 65.0196 161.5 64.7652 161.5 64.5C161.5 64.2348 161.395 63.9804 161.207 63.7929C161.02 63.6054 160.765 63.5 160.5 63.5C160.235 63.5 159.98 63.3946 159.793 63.2071C159.605 63.0196 159.5 62.7652 159.5 62.5Z" fill="#7AB92D"/>
<path d="M168.965 67.5C167.039 67.4935 165.168 66.8657 163.627 65.71C163.222 65.9074 162.895 66.2366 162.7 66.6439C162.505 67.0511 162.454 67.5123 162.556 67.9522C162.657 68.392 162.904 68.7846 163.257 69.0657C163.611 69.3468 164.049 69.4999 164.5 69.5C165.343 69.5003 166.177 69.3223 166.946 68.9776C167.716 68.6329 168.404 68.1293 168.965 67.5Z" fill="#7AB92D"/>
<path d="M164 56C163.615 56.0004 163.239 56.112 162.916 56.3214C162.593 56.5307 162.337 56.8289 162.18 57.18C162.55 57.0113 162.962 56.9596 163.361 57.0318C163.761 57.1039 164.129 57.2965 164.416 57.5837C164.704 57.8709 164.896 58.239 164.968 58.6386C165.04 59.0383 164.989 59.4505 164.82 59.82C165.237 59.6328 165.578 59.3081 165.784 58.9C165.991 58.492 166.051 58.0254 165.955 57.5783C165.859 57.1311 165.613 56.7304 165.257 56.4431C164.901 56.1559 164.457 55.9995 164 56Z" fill="#7AB92D"/>
<path d="M168.5 61.5C167.997 61.5009 167.514 61.6923 167.147 62.0355C167.435 61.9801 167.731 61.9895 168.016 62.0629C168.3 62.1363 168.564 62.2719 168.789 62.4599C169.014 62.6479 169.195 62.8836 169.318 63.1499C169.441 63.4163 169.503 63.7066 169.5 64C169.5 65.02 169.239 66.023 168.743 66.914C168.246 67.8051 167.531 68.5546 166.664 69.0915C167.792 68.6551 168.763 67.8876 169.447 66.8897C170.132 65.8918 170.499 64.7102 170.5 63.5C170.5 62.9696 170.289 62.4609 169.914 62.0858C169.539 61.7107 169.031 61.5 168.5 61.5Z" fill="#7AB92D"/>
<path d="M160.5 63.5C160.235 63.5 159.981 63.3946 159.793 63.2071C159.605 63.0196 159.5 62.7652 159.5 62.5C159.499 62.272 159.42 62.0513 159.276 61.8743C159.133 61.6973 158.933 61.5747 158.71 61.5269C158.487 61.479 158.255 61.5088 158.051 61.6112C157.847 61.7136 157.685 61.8825 157.59 62.09C157.742 62.0205 157.909 61.9904 158.076 62.0025C158.243 62.0145 158.404 62.0684 158.544 62.159C158.685 62.2497 158.8 62.3742 158.88 62.5212C158.959 62.6682 159.001 62.8328 159 63C159 63.2652 159.105 63.5196 159.293 63.7071C159.481 63.8946 159.735 64 160 64C160.167 63.9993 160.332 64.0407 160.479 64.1204C160.626 64.2 160.75 64.3154 160.841 64.4559C160.932 64.5964 160.986 64.7574 160.998 64.9241C161.01 65.0909 160.98 65.2579 160.91 65.41C161.118 65.3155 161.286 65.1529 161.389 64.9492C161.491 64.7456 161.521 64.513 161.473 64.2901C161.425 64.0672 161.303 63.8673 161.126 63.7237C160.949 63.58 160.728 63.501 160.5 63.5Z" fill="#5BA006"/>
<path d="M164.53 68C164.396 68.0006 164.268 67.949 164.172 67.8563C164.075 67.7636 164.019 67.637 164.015 67.5035C164.013 67.4387 164.024 67.3741 164.047 67.3135C164.07 67.2529 164.105 67.1976 164.15 67.1507C164.194 67.1038 164.248 67.0663 164.308 67.0405C164.367 67.0146 164.431 67.0008 164.496 67C165.424 66.9968 166.312 66.6272 166.969 65.9716C167.625 65.316 167.996 64.4276 168 63.5C168 63.3674 168.053 63.2402 168.146 63.1464C168.24 63.0527 168.367 63 168.5 63C168.633 63 168.76 63.0527 168.853 63.1464C168.947 63.2402 169 63.3674 169 63.5C168.997 64.6867 168.526 65.8245 167.69 66.6667C166.854 67.509 165.72 67.988 164.533 68H164.53Z" fill="#5BA006"/>
<path d="M164 58.5C164.276 58.5 164.5 58.2761 164.5 58C164.5 57.7239 164.276 57.5 164 57.5C163.724 57.5 163.5 57.7239 163.5 58C163.5 58.2761 163.724 58.5 164 58.5Z" fill="#5BA006"/>
<path d="M164 63C164.276 63 164.5 62.7761 164.5 62.5C164.5 62.2239 164.276 62 164 62C163.724 62 163.5 62.2239 163.5 62.5C163.5 62.7761 163.724 63 164 63Z" fill="#A1D51C"/>
<path d="M169 59.5C169.276 59.5 169.5 59.2761 169.5 59C169.5 58.7239 169.276 58.5 169 58.5C168.724 58.5 168.5 58.7239 168.5 59C168.5 59.2761 168.724 59.5 169 59.5Z" fill="#A1D51C"/>
<path d="M158.5 60C158.776 60 159 59.7761 159 59.5C159 59.2239 158.776 59 158.5 59C158.224 59 158 59.2239 158 59.5C158 59.7761 158.224 60 158.5 60Z" fill="#7AB92D"/>
<path d="M161.5 62C161.776 62 162 61.7761 162 61.5C162 61.2239 161.776 61 161.5 61C161.224 61 161 61.2239 161 61.5C161 61.7761 161.224 62 161.5 62Z" fill="#A1D51C"/>
<path d="M159.5 58C159.776 58 160 57.7761 160 57.5C160 57.2239 159.776 57 159.5 57C159.224 57 159 57.2239 159 57.5C159 57.7761 159.224 58 159.5 58Z" fill="#7AB92D"/>
<path d="M160 68C160.276 68 160.5 67.7761 160.5 67.5C160.5 67.2239 160.276 67 160 67C159.724 67 159.5 67.2239 159.5 67.5C159.5 67.7761 159.724 68 160 68Z" fill="#7AB92D"/>
<circle cx="111" cy="112.378" r="100.5" fill="url(#paint13_radial)" stroke="#043869"/>
<path d="M186.352 115.5C186.352 115.224 186.124 115 185.844 115C185.563 115 185.336 115.224 185.336 115.5C185.336 115.776 185.563 116 185.844 116C186.124 116 186.352 115.776 186.352 115.5Z" fill="black"/>
<path d="M186.352 113.5C186.352 113.224 186.124 113 185.844 113C185.563 113 185.336 113.224 185.336 113.5C185.336 113.776 185.563 114 185.844 114C186.124 114 186.352 113.776 186.352 113.5Z" fill="black"/>
<path d="M190.414 112.338L190.414 111.663C190.414 110.746 189.657 110 188.726 110L188.497 110C187.518 110 186.807 110.793 186.807 111.657C186.807 112.07 186.947 112.29 187.124 112.863C187.354 113.544 188 114 188.726 114C189.657 114 190.414 113.254 190.414 112.338ZM188.088 112.548L187.859 111.872C187.713 111.442 188.038 111 188.497 111L188.726 111C189.097 111 189.398 111.297 189.398 111.663L189.398 112.338C189.398 112.703 189.097 113 188.726 113C188.442 113 188.18 112.822 188.088 112.548Z" fill="black"/>
<path d="M190.414 117.337L190.414 116.662C190.414 115.744 189.659 115 188.726 115C187.998 115 187.355 115.457 187.124 116.136L186.896 116.812C186.532 117.887 187.341 119 188.497 119L188.726 119C189.657 119 190.414 118.254 190.414 117.337ZM188.497 118C188.037 118 187.714 117.558 187.859 117.128L188.088 116.453C188.179 116.182 188.436 116 188.726 116C189.098 116 189.398 116.296 189.398 116.662L189.398 117.337C189.398 117.703 189.097 118 188.726 118L188.497 118Z" fill="black"/>
<path d="M176.052 123.371C176.182 122.69 175.972 121.873 175.263 121.382L176.602 118.308L177.942 121.387C177.424 121.757 177.109 122.348 177.109 123C177.109 124.103 178.021 125 179.141 125C179.881 125 180.55 124.599 180.904 123.982C182.111 124.144 183.203 123.212 183.203 122C183.203 120.662 181.894 119.734 180.682 120.067L178.259 114.5L180.684 108.928C181.965 109.267 183.203 108.291 183.203 107C183.203 105.786 182.109 104.856 180.904 105.018C180.004 103.45 177.515 103.724 177.152 105.629C177.021 106.31 177.231 107.127 177.94 107.618L176.602 110.692L175.261 107.613C175.779 107.243 176.094 106.652 176.094 106C176.094 104.897 175.183 104 174.062 104C173.323 104 172.653 104.401 172.299 105.018C171.092 104.856 170 105.788 170 107C170 108.318 171.288 109.272 172.521 108.933L174.944 114.5L172.519 120.072C171.239 119.733 170 120.708 170 122C170 123.214 171.094 124.144 172.299 123.982C173.198 125.549 175.688 125.277 176.052 123.371ZM179.056 107.592C179.169 107.333 179.042 107.032 178.773 106.929C178.198 106.708 178.078 106.19 178.15 105.814C178.355 104.739 179.841 104.743 180.116 105.741C180.195 106.029 180.512 106.185 180.794 106.074C181.475 105.805 182.187 106.306 182.187 107C182.187 107.721 181.402 108.272 180.673 107.848C180.409 107.694 180.068 107.804 179.948 108.081L177.707 113.231L177.154 111.961L179.056 107.592ZM173.255 108.081C173.135 107.804 172.794 107.694 172.529 107.848C171.798 108.275 171.016 107.715 171.016 107C171.016 106.307 171.727 105.805 172.409 106.074C172.691 106.185 173.008 106.029 173.088 105.74C173.208 105.305 173.609 105 174.062 105C174.623 105 175.078 105.449 175.078 106C175.078 106.413 174.824 106.778 174.43 106.929C174.162 107.032 174.034 107.332 174.147 107.592L179.948 120.919C180.069 121.196 180.41 121.306 180.674 121.152C181.405 120.725 182.187 121.285 182.187 122C182.187 122.695 181.475 123.195 180.794 122.926C180.513 122.815 180.195 122.971 180.116 123.259C179.995 123.695 179.594 124 179.141 124C178.581 124 178.125 123.551 178.125 123C178.125 122.587 178.38 122.222 178.774 122.071C179.041 121.968 179.169 121.668 179.056 121.408L173.255 108.081ZM173.088 123.259C173.05 123.122 172.954 123.007 172.824 122.943C172.694 122.879 172.543 122.873 172.409 122.926C171.729 123.194 171.016 122.696 171.016 122C171.016 121.279 171.801 120.728 172.53 121.152C172.794 121.306 173.135 121.195 173.255 120.919L175.497 115.769L176.049 117.039L174.147 121.408C174.034 121.667 174.161 121.968 174.43 122.071C175.005 122.292 175.125 122.809 175.053 123.186C174.848 124.261 173.362 124.257 173.088 123.259Z" fill="black"/>
<path d="M190.414 121C194.068 121 196 118.096 196 114.5C196 110.901 194.065 108 190.414 108C189.611 108 188.422 108.147 187.59 108.421C187.236 108.151 186.8 108 186.352 108C185.01 108 184.024 109.288 184.406 110.552L184.405 110.883C184.317 110.958 184.203 111 184.084 111L182.492 111C181.652 111 180.969 111.673 180.969 112.5L180.969 116.5C180.969 117.327 181.652 118 182.492 118L184.124 118C184.226 118 184.321 118.036 184.396 118.1L184.396 118.485C184.044 119.743 185.022 121 186.352 121C186.8 121 187.236 120.849 187.59 120.579C188.422 120.853 189.611 121 190.414 121ZM187.101 119.667C186.904 119.882 186.638 120 186.352 120C185.673 120 185.188 119.345 185.389 118.704C185.403 118.657 185.411 118.607 185.411 118.558C185.393 118.008 185.461 117.852 185.332 117.653C185.067 117.244 184.616 117 184.124 117L182.492 117C182.212 117 181.984 116.776 181.984 116.5L181.984 116L183.812 116C184.093 116 184.32 115.776 184.32 115.5C184.32 115.224 184.093 115 183.812 115L181.984 115L181.984 114L183.812 114C184.093 114 184.32 113.776 184.32 113.5C184.32 113.224 184.093 113 183.812 113L181.984 113L181.984 112.5C181.984 112.224 182.212 112 182.492 112L184.084 112C184.86 112 185.42 111.413 185.421 111.067C185.421 111.06 185.421 110.47 185.421 110.476C185.421 110.27 185.247 110.11 185.396 109.682C185.398 109.675 185.401 109.668 185.403 109.66C185.549 109.265 185.929 109 186.352 109C186.638 109 186.904 109.118 187.101 109.333C187.247 109.493 187.481 109.542 187.681 109.456C188.347 109.171 189.594 109 190.414 109C193.784 109 194.984 111.841 194.984 114.5C194.984 117.159 193.784 120 190.414 120C189.594 120 188.347 119.829 187.681 119.544C187.481 119.458 187.247 119.507 187.101 119.667Z" fill="black"/>
<path d="M102.943 30.2966C102.943 30.2966 99.0845 29.7875 101.08 24.9874C103.351 19.5251 109.522 27.3407 109.522 27.3407V30.2966H102.943Z" fill="#EEFF30"/>
<path d="M119.057 30.2966C119.057 30.2966 122.916 29.7875 120.92 24.9874C118.65 19.5251 112.478 27.3407 112.478 27.3407V30.2966H119.057V30.2966Z" fill="#EEFF30"/>
<path d="M100.535 26.9457C100.201 29.9347 102.943 30.2966 102.943 30.2966H109.522V29.3531H102.943C102.943 29.3531 100.805 29.0704 100.535 26.9457Z" fill="#858C36"/>
<path d="M119.057 29.3531H112.478V30.2966H119.057C119.057 30.2966 121.799 29.9347 121.465 26.9457C121.195 29.0704 119.057 29.3531 119.057 29.3531Z" fill="#858C36"/>
<path d="M122.014 34.1797H99.986V45.636C99.986 46.3624 100.575 46.9512 101.301 46.9512H120.699C121.425 46.9512 122.014 46.3624 122.014 45.636V34.1797H122.014Z" fill="#4A8CCA"/>
<path d="M99.9861 34.1798H122.014V35.1232H99.9861V34.1798Z" fill="#225A8E"/>
<path d="M120.699 46.0078H101.301C100.575 46.0078 99.986 45.4189 99.986 44.6926V45.636C99.986 46.3624 100.575 46.9513 101.301 46.9513H120.699C121.425 46.9513 122.014 46.3624 122.014 45.636V44.6926C122.014 45.4189 121.425 46.0078 120.699 46.0078Z" fill="#225A8E"/>
<path d="M122.952 34.1797H99.0483C98.4693 34.1797 98 33.7104 98 33.1315V31.3449C98 30.766 98.4693 30.2966 99.0483 30.2966H122.952C123.531 30.2966 124 30.766 124 31.3449V33.1315C124 33.7104 123.531 34.1797 122.952 34.1797Z" fill="#4A8CCA"/>
<path d="M109.522 27.3407H112.478V30.2966H109.522V27.3407Z" fill="#B4C20D"/>
<path d="M109.522 29.3531H112.478V30.2966H109.522V29.3531Z" fill="#D2E030"/>
<path d="M122.165 43.9529L123.728 42.3908C124.091 42.0276 124.091 41.4387 123.728 41.0755L119.52 36.8677C119.287 36.6346 118.966 36.511 118.637 36.5274L115.584 36.6795C115.21 36.6981 114.911 36.9973 114.892 37.3715L114.74 40.4242C114.724 40.7534 114.847 41.0742 115.08 41.3072L119.288 45.515C119.651 45.8782 120.24 45.8782 120.603 45.515L122.166 43.9528L122.165 43.9529Z" fill="#EAEAEA"/>
<path d="M123.728 41.0755L123.05 40.3979C123.397 40.7623 123.393 41.3387 123.035 41.6966L121.473 43.2587L121.473 43.2586L119.911 44.8207C119.548 45.1839 118.958 45.1846 118.595 44.8215L119.288 45.515C119.651 45.8782 120.24 45.8782 120.603 45.515L122.166 43.9528L122.165 43.953L123.728 42.3909C124.091 42.0276 124.091 41.4387 123.728 41.0755Z" fill="#CBCBCB"/>
<path d="M117.594 38.0865C117.594 38.0864 117.594 38.0864 117.594 38.0864C117.236 37.7283 116.653 37.7283 116.295 38.0865C115.937 38.4447 115.937 39.0274 116.295 39.3856C116.474 39.5646 116.709 39.6542 116.944 39.6542C117.18 39.6542 117.415 39.5646 117.594 39.3855C117.952 39.0274 117.952 38.4447 117.594 38.0865Z" fill="#8C808A"/>
<path d="M116.944 39.1285C116.873 39.1285 116.802 39.1095 116.738 39.0696C116.597 38.9825 113.283 36.9019 112.174 33.8637C112.099 33.6602 112.204 33.4349 112.408 33.3606C112.611 33.2862 112.836 33.391 112.911 33.5945C113.926 36.3746 117.119 38.3826 117.151 38.4026C117.335 38.5169 117.392 38.7588 117.278 38.9429C117.203 39.0626 117.075 39.1285 116.944 39.1285Z" fill="#E49542"/>
<path d="M109.056 30.2966H112.944V46.9513H109.056V30.2966Z" fill="#EEFF30"/>
<path d="M109.056 46.0078H112.944V46.9513H109.056V46.0078Z" fill="#B4C20D"/>
<g clip-path="url(#clip2)">
<path d="M178.592 165.357L171.014 164.899L173.94 169.479C176.363 169.625 178.446 167.78 178.592 165.357Z" fill="#C782FF"/>
<path d="M144.795 162.113C144.134 162.073 143.566 162.576 143.526 163.237C143.486 163.898 143.99 164.466 144.651 164.506L147.841 164.699L150.307 163.647L147.986 162.306L144.795 162.113Z" fill="#A4A6AA"/>
<path d="M174.036 167.884C176.459 168.03 178.499 166.899 178.592 165.357C178.739 162.934 176.893 160.851 174.47 160.704L171.014 164.899L174.036 167.884Z" fill="#CAA6FD"/>
<path d="M174.036 167.884L153.208 163.422L153.112 165.018C153.667 165.051 154.204 165.229 154.669 165.534L157.574 167.435C158.738 168.197 160.08 168.641 161.469 168.725L173.939 169.479L174.036 167.884Z" fill="#9BFEF7"/>
<path d="M157.639 166.365C158.824 166.782 160.177 167.046 161.565 167.13L165.8 164.183L169.649 167.618L174.036 167.884L174.47 160.704L161.999 159.95C160.611 159.867 159.225 160.146 157.978 160.762L154.865 162.3C154.366 162.546 153.812 162.658 153.257 162.625L147.986 162.306L147.842 164.699L153.112 165.018C153.667 165.051 154.209 165.157 154.682 165.324L157.639 166.365Z" fill="#DBFFFC"/>
<path d="M172.609 164.995L158.942 164.169C158.849 165.711 160.023 167.037 161.565 167.13L169.649 167.618C171.19 167.712 172.516 166.537 172.609 164.995Z" fill="#C782FF"/>
<path d="M161.662 165.534L164.404 164.099L166.953 165.854L169.745 166.023C171.287 166.116 172.569 165.656 172.609 164.995C172.702 163.453 171.528 162.128 169.986 162.034L161.903 161.546C160.361 161.453 159.035 162.627 158.942 164.169C158.902 164.83 160.12 165.441 161.662 165.534Z" fill="#CAA6FD"/>
<path d="M161.804 163.14L167.095 163.459L166.95 165.852L161.66 165.532L161.804 163.14Z" fill="#414851"/>
<path d="M168.92 165.621C169.359 166.117 170.117 166.163 170.612 165.724C171.108 165.285 171.154 164.527 170.715 164.031C170.275 163.536 169.518 163.49 169.022 163.929C168.527 164.368 168.481 165.126 168.92 165.621Z" fill="white"/>
</g>
<g clip-path="url(#clip3)">
<path d="M75.0228 164.109L76.2352 162.805C76.3783 162.652 76.3695 162.411 76.2157 162.268L59.2563 146.494C59.1025 146.351 58.8616 146.36 58.7186 146.513L57.5062 147.817C57.3628 147.971 57.3719 148.212 57.5257 148.355L74.4851 164.128C74.6389 164.271 74.8795 164.263 75.0228 164.109Z" fill="#4B6675"/>
<path d="M75.0229 164.109L76.2353 162.805C76.3783 162.652 76.3696 162.411 76.2158 162.268L75.1014 161.231C75.2552 161.374 75.2639 161.615 75.1208 161.769L73.9085 163.072C73.7651 163.227 73.5245 163.235 73.3707 163.092L74.4852 164.128C74.639 164.271 74.8795 164.263 75.0229 164.109Z" fill="#294A59"/>
<path d="M68.2208 172.948L75.6879 164.919C75.8382 164.758 75.8287 164.505 75.6671 164.355L57.2144 147.192C57.0528 147.042 56.8 147.051 56.6497 147.212L49.1826 155.241L68.2208 172.948Z" fill="#99F5D2"/>
<path d="M68.2208 172.948L75.6879 164.919C75.8382 164.758 75.8287 164.505 75.6671 164.355L74.5526 163.318C74.7142 163.469 74.7237 163.721 74.5734 163.883L67.1063 171.911L68.2208 172.948Z" fill="#69D8E4"/>
<path d="M68.2209 172.948L49.1827 155.241L46.9143 159.896C46.8371 160.054 46.8727 160.243 47.0016 160.363L63.3057 175.528C63.4354 175.648 63.6292 175.669 63.7818 175.579L68.2209 172.948Z" fill="#69D8E4"/>
<path d="M68.2209 172.948L67.1065 171.911L62.6673 174.542C62.5148 174.633 62.3209 174.612 62.1913 174.491L63.3057 175.528C63.4354 175.648 63.6292 175.669 63.7818 175.579L68.2209 172.948Z" fill="#32C6C6"/>
<path d="M56.5753 177.022C56.5871 177.009 56.5974 176.997 56.6073 176.983L61.5985 170.129L52.5099 161.676L46.0351 167.15C46.0222 167.161 46.0104 167.172 45.9986 167.185C45.8556 167.338 45.8639 167.579 46.0181 167.722C46.4947 168.166 46.8487 168.287 47.1613 168.394C47.4369 168.489 47.6749 168.571 48.0334 168.904C48.3915 169.237 48.4904 169.469 48.6045 169.737C48.734 170.041 48.8811 170.385 49.3577 170.829C49.8343 171.272 50.1883 171.393 50.5009 171.5C50.7764 171.595 51.0149 171.677 51.373 172.01C51.7315 172.344 51.83 172.575 51.9445 172.843C52.0739 173.147 52.221 173.492 52.6976 173.935C53.1742 174.378 53.5283 174.5 53.8409 174.607C54.1164 174.702 54.3548 174.784 54.7133 175.117C55.0714 175.45 55.1703 175.682 55.2848 175.95C55.4143 176.254 55.561 176.598 56.0376 177.041C56.1918 177.185 56.4323 177.176 56.5753 177.022Z" fill="#E4F4FF"/>
<path d="M56.5755 177.022C56.5872 177.009 56.5975 176.997 56.6074 176.983L61.5986 170.129L60.2984 168.92L55.2849 175.95C55.4144 176.254 55.5611 176.598 56.0377 177.041C56.1919 177.185 56.4324 177.176 56.5755 177.022Z" fill="#C0EAF7"/>
<path d="M61.7741 170.874L51.7543 161.555C51.6005 161.412 51.5917 161.171 51.7348 161.017C51.8779 160.863 52.1187 160.854 52.2726 160.998L62.2924 170.317C62.4463 170.46 62.455 170.701 62.3119 170.855C62.1688 171.008 61.928 171.017 61.7741 170.874Z" fill="#4B6675"/>
<path d="M51.801 169.641C51.638 169.774 51.3983 169.749 51.2657 169.586C51.1331 169.423 51.1578 169.183 51.3208 169.051L54.2999 166.627C54.449 166.506 54.6621 166.516 54.7989 166.644C54.8117 166.655 54.8239 166.668 54.8352 166.682C54.9678 166.845 54.9432 167.085 54.7801 167.218L51.801 169.641Z" fill="#C0EAF7"/>
<path d="M50.5997 167.611C50.4367 167.744 50.1972 167.719 50.0644 167.556C49.9318 167.393 49.9565 167.154 50.1195 167.021L52.6749 164.942C52.8239 164.821 53.037 164.831 53.1738 164.958C53.1866 164.97 53.1988 164.983 53.2101 164.997C53.3427 165.16 53.3181 165.4 53.1551 165.532L50.5997 167.611Z" fill="#C0EAF7"/>
<path d="M53.7854 171.958C53.6135 171.837 53.5712 171.6 53.6917 171.428L55.8933 168.281C56.0138 168.109 56.251 168.067 56.4232 168.187C56.4379 168.198 56.4517 168.209 56.4646 168.221C56.6014 168.348 56.627 168.56 56.5168 168.717L54.3152 171.864C54.1948 172.036 53.9575 172.078 53.7854 171.958Z" fill="#C0EAF7"/>
<path d="M55.8968 173.009C55.7247 172.888 55.6827 172.651 55.8032 172.479L57.6916 169.78C57.8121 169.608 58.0493 169.566 58.2215 169.686C58.2363 169.697 58.2501 169.708 58.2629 169.72C58.3997 169.847 58.4253 170.059 58.3151 170.216L56.4267 172.915C56.3062 173.087 56.069 173.129 55.8968 173.009Z" fill="#C0EAF7"/>
<path d="M63.2285 163.393L65.2084 161.264C65.6697 160.768 65.8297 159.919 65.6846 158.742C65.5822 157.912 65.3634 157.219 65.3543 157.189C65.3367 157.134 65.3058 157.085 65.2648 157.046C65.2638 157.045 65.2624 157.043 65.2611 157.042C65.2185 157.002 65.1655 156.974 65.107 156.959C65.0772 156.952 64.3703 156.784 63.535 156.742C62.3498 156.683 61.5152 156.904 61.0539 157.4L59.0739 159.528C58.8476 159.772 58.8509 160.149 59.0817 160.388C59.4698 160.789 59.7559 161.23 59.8869 161.63C59.9926 161.951 59.9844 162.211 59.8643 162.34C59.735 162.479 59.7426 162.696 59.8819 162.826C60.0208 162.955 60.2385 162.947 60.3677 162.808C60.4619 162.707 60.6412 162.668 60.8725 162.696C60.936 162.704 61.0032 162.716 61.0739 162.734C61.482 162.835 61.9426 163.089 62.3713 163.447C62.6255 163.66 63.0022 163.636 63.2285 163.393Z" fill="#FF2261"/>
<path d="M63.2285 163.393L65.2084 161.264C65.6698 160.768 65.8297 159.919 65.6846 158.742C65.5822 157.912 65.3635 157.219 65.3543 157.19C65.3368 157.134 65.3058 157.085 65.2648 157.046C65.4693 158.383 65.1543 159.976 64.5372 160.64C64.088 161.123 62.277 163.07 62.277 163.07C61.8015 162.711 61.4836 162.727 61.201 162.687C61.097 162.672 60.9869 162.676 60.8725 162.696C60.936 162.704 61.0033 162.716 61.0739 162.734C61.482 162.835 61.9427 163.089 62.3714 163.447C62.6255 163.66 63.0022 163.636 63.2285 163.393Z" fill="#B7305D"/>
<path d="M62.9932 160.674L62.6753 160.379L62.3797 160.697C62.2365 160.851 61.9958 160.859 61.8419 160.716C61.688 160.573 61.6793 160.332 61.8224 160.178L62.1181 159.861L61.8002 159.565C61.6463 159.422 61.6376 159.181 61.7807 159.027C61.9238 158.873 62.1646 158.864 62.3185 159.008L62.6364 159.303L62.9321 158.985C63.0752 158.832 63.3159 158.823 63.4698 158.966C63.6237 159.109 63.6324 159.35 63.4893 159.504L63.1936 159.822L63.5115 160.117C63.6654 160.26 63.6741 160.501 63.531 160.655C63.3879 160.809 63.1472 160.818 62.9932 160.674Z" fill="#E4F4FF"/>
</g>
<g clip-path="url(#clip4)">
<path d="M55.664 68.9078C55.443 69.1373 55.1947 69.3411 54.9463 69.5182C53.1531 70.7589 50.6704 70.607 49.0361 69.0336C47.4016 67.46 47.1557 64.985 48.3276 63.1461C48.4861 62.9047 48.6725 62.6654 48.879 62.4455L46.9633 61.8326C45.0898 64.4274 45.3583 68.0956 47.7356 70.3844C50.2616 72.8161 54.2397 72.8202 56.7543 70.4518C56.8457 70.3838 56.9366 70.2894 57.0148 70.2082C57.3789 69.83 57.3678 69.2467 56.9896 68.8826C56.6113 68.5185 56.0282 68.5295 55.664 68.9078Z" fill="#E0F4FF"/>
<path d="M61.3546 46.8843L62.1616 48.6716C62.3416 48.5024 62.5259 48.3352 62.7189 48.1978C64.512 46.957 66.9947 47.1088 68.6291 48.6823C70.2635 50.2558 70.5094 52.7309 69.3376 54.5699C69.1701 54.8248 68.9759 55.0807 68.7549 55.3103C68.3908 55.6885 68.4018 56.2717 68.7801 56.6359C69.1582 56.9999 69.7415 56.989 70.1057 56.6107C70.1838 56.5296 70.2747 56.4351 70.3392 56.3411C72.6105 53.7385 72.4554 49.7634 69.9295 47.3316C67.5522 45.0428 63.8764 44.9137 61.3546 46.8843Z" fill="#BBDCFF"/>
<path d="M60.6504 47.5077L58.6174 49.6194C57.5511 50.7269 56.371 51.439 55.2086 51.6733C54.2707 51.8633 53.4179 52.3437 52.7677 53.0191C52.1175 53.6944 51.6698 54.5648 51.5155 55.5092C51.3255 56.6798 50.6588 57.886 49.5925 58.9935L47.5595 61.1052C47.3385 61.3348 47.1307 61.5776 46.9632 61.8326L55.6891 70.2334C55.8782 70.4154 56.1454 70.5163 56.4099 70.485C56.4364 70.4845 56.5555 70.4689 56.7542 70.4518C58.0642 70.3076 62.9325 69.4683 66.2617 66.0103C69.5909 62.5523 70.2449 57.6556 70.3391 56.3411C70.3487 56.1419 70.3598 56.0223 70.3593 55.9958C70.3805 55.7303 70.2696 55.4672 70.0805 55.2851L61.3546 46.8843C61.1062 47.0613 60.8714 47.2782 60.6504 47.5077Z" fill="#76E2F8"/>
<path d="M61.3546 46.8843L70.0805 55.2851C70.2696 55.4672 70.3805 55.7303 70.3593 55.9958C70.3598 56.0223 70.3487 56.1419 70.3391 56.3411C70.2448 57.6556 69.5908 62.5523 66.2617 66.0103L52.7677 53.0191C53.4179 52.3437 54.2707 51.8633 55.2085 51.6733C56.3711 51.439 57.5511 50.7269 58.6174 49.6194L60.6504 47.5077C60.8714 47.2782 61.1062 47.0613 61.3546 46.8843Z" fill="#25D9F8"/>
<path d="M62.0603 52.8559C62.3855 53.2211 62.3831 53.7913 62.045 54.1425C62.032 54.156 62.0054 54.1566 61.9924 54.1701C60.4414 55.5919 58.7229 56.5658 56.9411 57.0109C56.9411 57.0109 56.9281 57.0244 56.9416 57.0374C56.538 58.8354 55.6169 60.6031 54.268 62.1934C53.9049 62.6247 53.3482 62.6352 52.9574 62.3111C52.5531 61.9741 52.502 61.3784 52.8527 60.9871C54.1366 59.4642 54.9532 57.778 55.2261 56.0886C55.2357 55.8895 55.3251 55.7156 55.4422 55.5939C55.5722 55.4589 55.7558 55.3493 55.9805 55.3051C57.6192 55.0089 59.2602 54.1424 60.7333 52.8015C61.111 52.4363 61.7082 52.4648 62.0603 52.8559Z" fill="#A8EBFA"/>
<path d="M63.4345 56.7815C63.8126 57.1456 63.8238 57.7288 63.4596 58.1071L58.2579 63.5101C57.8938 63.8883 57.3105 63.8993 56.9323 63.5353C56.5541 63.1711 56.543 62.5879 56.9072 62.2097L62.1089 56.8067C62.473 56.4284 63.0562 56.4174 63.4345 56.7815Z" fill="#A8EBFA"/>
<path d="M64.8354 60.7331C65.2136 61.0972 65.2248 61.6804 64.8606 62.0587L62.2597 64.7602C61.8956 65.1385 61.3123 65.1494 60.9342 64.7854C60.5559 64.4212 60.5448 63.838 60.909 63.4598L63.5099 60.7583C63.874 60.38 64.4572 60.369 64.8354 60.7331Z" fill="#A8EBFA"/>
<path d="M64.8355 60.7331C65.2136 61.0972 65.2248 61.6804 64.8606 62.0587L63.5602 63.4094L62.2095 62.109L63.5099 60.7583C63.8741 60.38 64.4572 60.369 64.8355 60.7331Z" fill="#76E2F8"/>
<path d="M63.4344 56.7815C63.8125 57.1456 63.8237 57.7288 63.4595 58.1071L60.8587 60.8086L59.5079 59.5082L62.1088 56.8067C62.4729 56.4284 63.0561 56.4174 63.4344 56.7815Z" fill="#76E2F8"/>
<path d="M62.0603 52.8559C62.3855 53.2211 62.3831 53.7913 62.045 54.1425C62.032 54.156 62.0055 54.1566 61.9925 54.1701C60.4414 55.5919 58.723 56.5658 56.9411 57.0109C56.9411 57.0109 56.9281 57.0244 56.9416 57.0374L55.4423 55.5939C55.5723 55.4589 55.7558 55.3493 55.9805 55.3051C57.6192 55.0088 59.2602 54.1424 60.7333 52.8015C61.111 52.4363 61.7082 52.4648 62.0603 52.8559Z" fill="#76E2F8"/>
</g>
<circle cx="111" cy="111.378" r="105" stroke="#EEFF30" stroke-width="3" stroke-linecap="round" stroke-linejoin="round" stroke-dasharray="0.1 20"/>
<g clip-path="url(#clip5)">
<path d="M48.2744 122.274C45.9727 124.576 42.2407 124.576 39.9389 122.274L25.7285 108.063C23.4268 105.762 23.4268 102.03 25.7285 99.728C28.0303 97.4262 31.7622 97.4262 34.064 99.728L48.2744 113.938C50.5762 116.24 50.5762 119.972 48.2744 122.274Z" fill="#F8C800"/>
<path d="M41.8565 120.934L27.0668 106.144C25.1503 104.228 24.9541 101.249 26.4673 99.1081C26.2092 99.2933 25.9596 99.4955 25.7277 99.7274C23.4259 102.029 23.4259 105.761 25.7277 108.063L39.9381 122.273C42.2398 124.575 45.9718 124.575 48.2736 122.273C48.5055 122.041 48.7077 121.792 48.8929 121.534C46.7522 123.047 43.773 122.851 41.8565 120.934Z" fill="#F1A400"/>
<path d="M41.1705 106.833L32.8342 115.17L25.7264 108.062C23.4244 105.76 23.4244 102.031 25.7264 99.7286C25.7978 99.6573 25.8722 99.589 25.9467 99.5207C25.9963 99.4772 26.0428 99.437 26.0925 99.3935C27.1877 98.4659 28.5404 98.0006 29.8931 98.0006C31.4009 98.0006 32.9118 98.5746 34.0628 99.7256L41.1705 106.833Z" fill="#EF111A"/>
<path d="M27.0669 106.144L34.4631 113.541L32.8344 115.169L25.7265 108.062C23.4245 105.76 23.4245 102.03 25.7265 99.7284C25.7979 99.6571 25.8723 99.5888 25.9468 99.5205C25.9965 99.477 26.043 99.4368 26.0926 99.3933C26.2167 99.294 26.3408 99.2009 26.4649 99.1079C24.9541 101.252 25.1495 104.227 27.0669 106.144Z" fill="#CA0000"/>
<path d="M29.7555 101.037C30.7248 101.037 31.5107 100.62 31.5107 100.105C31.5107 99.5902 30.7248 99.1728 29.7555 99.1728C28.7861 99.1728 28.0002 99.5902 28.0002 100.105C28.0002 100.62 28.7861 101.037 29.7555 101.037Z" fill="#FF6D58"/>
</g>
</g>
<defs>
<filter id="filter0_i" x="0" y="0" width="222" height="222" filterUnits="userSpaceOnUse" color-interpolation-filters="sRGB">
<feFlood flood-opacity="0" result="BackgroundImageFix"/>
<feBlend mode="normal" in="SourceGraphic" in2="BackgroundImageFix" result="shape"/>
<feColorMatrix in="SourceAlpha" type="matrix" values="0 0 0 0 0 0 0 0 0 0 0 0 0 0 0 0 0 0 127 0" result="hardAlpha"/>
<feOffset/>
<feGaussianBlur stdDeviation="3"/>
<feComposite in2="hardAlpha" operator="arithmetic" k2="-1" k3="1"/>
<feColorMatrix type="matrix" values="0 0 0 0 1 0 0 0 0 1 0 0 0 0 1 0 0 0 0.5 0"/>
<feBlend mode="normal" in2="shape" result="effect1_innerShadow"/>
</filter>
<linearGradient id="paint0_linear" x1="102.017" y1="190.813" x2="102.017" y2="190.206" gradientUnits="userSpaceOnUse">
<stop stop-color="#F8F6FB"/>
<stop offset="1" stop-color="#EFDCFB"/>
</linearGradient>
<linearGradient id="paint1_linear" x1="119.983" y1="190.813" x2="119.983" y2="190.206" gradientUnits="userSpaceOnUse">
<stop stop-color="#F8F6FB"/>
<stop offset="1" stop-color="#EFDCFB"/>
</linearGradient>
<linearGradient id="paint2_linear" x1="111" y1="193.551" x2="111" y2="190.282" gradientUnits="userSpaceOnUse">
<stop stop-color="#8A7889"/>
<stop offset="0.3639" stop-color="#877586"/>
<stop offset="0.6755" stop-color="#7F6A7E"/>
<stop offset="0.967" stop-color="#705970"/>
<stop offset="1" stop-color="#6E566E"/>
</linearGradient>
<linearGradient id="paint3_linear" x1="117.132" y1="189.65" x2="111.361" y2="195.421" gradientUnits="userSpaceOnUse">
<stop stop-color="#6E566E" stop-opacity="0"/>
<stop offset="0.2944" stop-color="#674D66" stop-opacity="0.294"/>
<stop offset="1" stop-color="#593B56"/>
</linearGradient>
<linearGradient id="paint4_linear" x1="111" y1="194.528" x2="111" y2="191.361" gradientUnits="userSpaceOnUse">
<stop stop-color="#FFD945"/>
<stop offset="0.3043" stop-color="#FFCD3E"/>
<stop offset="0.8558" stop-color="#FFAD2B"/>
<stop offset="1" stop-color="#FFA325"/>
</linearGradient>
<linearGradient id="paint5_linear" x1="111" y1="192.76" x2="111" y2="194.777" gradientUnits="userSpaceOnUse">
<stop stop-color="#FFD945"/>
<stop offset="0.3043" stop-color="#FFCD3E"/>
<stop offset="0.8558" stop-color="#FFAD2B"/>
<stop offset="1" stop-color="#FFA325"/>
</linearGradient>
<linearGradient id="paint6_linear" x1="108.458" y1="188.156" x2="116.193" y2="165.406" gradientUnits="userSpaceOnUse">
<stop stop-color="#FF7044"/>
<stop offset="1" stop-color="#F82814"/>
</linearGradient>
<linearGradient id="paint7_linear" x1="111" y1="174.373" x2="111" y2="171.928" gradientUnits="userSpaceOnUse">
<stop stop-color="#F82814" stop-opacity="0"/>
<stop offset="1" stop-color="#C0272D"/>
</linearGradient>
<linearGradient id="paint8_linear" x1="107.149" y1="184.531" x2="116.049" y2="175.631" gradientUnits="userSpaceOnUse">
<stop stop-color="#F8F6FB"/>
<stop offset="1" stop-color="#EFDCFB"/>
</linearGradient>
<linearGradient id="paint9_linear" x1="117.96" y1="173.719" x2="103.618" y2="188.062" gradientUnits="userSpaceOnUse">
<stop stop-color="#EFDCFB" stop-opacity="0"/>
<stop offset="0.4856" stop-color="#BAAAD6" stop-opacity="0.486"/>
<stop offset="1" stop-color="#8679B2"/>
</linearGradient>
<linearGradient id="paint10_linear" x1="108.888" y1="182.791" x2="113.768" y2="177.911" gradientUnits="userSpaceOnUse">
<stop stop-color="#FF7044"/>
<stop offset="1" stop-color="#F82814"/>
</linearGradient>
<linearGradient id="paint11_linear" x1="111.65" y1="180.749" x2="104.182" y2="176.746" gradientUnits="userSpaceOnUse">
<stop stop-color="#F82814" stop-opacity="0"/>
<stop offset="1" stop-color="#C0272D"/>
</linearGradient>
<linearGradient id="paint12_linear" x1="110.93" y1="181.329" x2="114.933" y2="173.861" gradientUnits="userSpaceOnUse">
<stop stop-color="#F82814" stop-opacity="0"/>
<stop offset="1" stop-color="#C0272D"/>
</linearGradient>
<radialGradient id="paint13_radial" cx="0" cy="0" r="1" gradientUnits="userSpaceOnUse" gradientTransform="translate(111 112.378) rotate(90) scale(101)">
<stop offset="0.921875" stop-opacity="0"/>
<stop offset="1" stop-color="#04111A" stop-opacity="0.04"/>
</radialGradient>
<clipPath id="clip0">
<rect width="222" height="222" fill="white"/>
</clipPath>
<clipPath id="clip1">
<rect width="28" height="28" transform="matrix(1 1.74846e-07 1.74846e-07 -1 97 197)" fill="white"/>
</clipPath>
<clipPath id="clip2">
<rect x="162.85" y="145.648" width="26.4789" height="26.4789" transform="rotate(48.4588 162.85 145.648)" fill="white"/>
</clipPath>
<clipPath id="clip3">
<rect width="26" height="26" transform="matrix(0.732239 0.681048 0.681048 -0.732239 41 164.038)" fill="white"/>
</clipPath>
<clipPath id="clip4">
<rect x="36.8914" y="59.9441" width="32" height="32" transform="rotate(-46.0874 36.8914 59.9441)" fill="white"/>
</clipPath>
<clipPath id="clip5">
<rect x="24" y="98" width="26" height="26" fill="white"/>
</clipPath>
</defs>
</svg>
